<svg xmlns="http://www.w3.org/2000/svg" xmlns:xlink="http://www.w3.org/1999/xlink" fill="none" version="1.1" width="24" height="24" viewBox="0 0 24 24"><defs><clipPath id="master_svg0_234_5699"><rect x="0" y="0" width="24" height="24" rx="0"/></clipPath></defs><g clip-path="url(#master_svg0_234_5699)"><g><path d="M17.958251953125,3.3330078125L6.708251953125,3.3330078125C4.8442919531249995,3.3330078125,3.333251953125,4.8440478124999995,3.333251953125,6.7080078125L3.333251953125,17.9580078125C3.333251953125,19.8220078125,4.8442919531249995,21.3330078125,6.708251953125,21.3330078125L17.958251953125,21.3330078125C19.822251953125,21.3330078125,21.333251953125,19.8220078125,21.333251953125,17.9580078125L21.333251953125,6.7080078125C21.333251953125,4.8440478124999995,19.822251953125,3.3330078125,17.958251953125,3.3330078125ZM5.583251953125,6.7080078125C5.583251953125,6.0866878125,6.086931953125,5.5830078125,6.708251953125,5.5830078125L17.958251953125,5.5830078125C18.579551953124998,5.5830078125,19.083251953125,6.0866878125,19.083251953125,6.7080078125L19.083251953125,17.9580078125C19.083251953125,18.579307812499998,18.579551953124998,19.0830078125,17.958251953125,19.0830078125L6.708251953125,19.0830078125C6.086931953125,19.0830078125,5.583251953125,18.579307812499998,5.583251953125,17.9580078125L5.583251953125,6.7080078125ZM11.935041953125,9.549287812500001Q12.730531953125,8.7537878125,11.935041953125,7.9582978125Q11.139541953125,7.1627978125,10.344051953125,7.9582978125L7.957561953125,10.3447778125Q7.162061953125,11.140277812499999,7.957561953125,11.9357678125Q8.355311953125,12.3335178125,8.753061953125,12.3335178125Q9.150801953125,12.3335178125,9.548551953125,11.9357678125L11.935041953125,9.549287812500001ZM15.912951953125,10.345177812500001Q16.708451953125,9.5496878125,15.912951953125,8.7541878125Q15.117451953125,7.9586978125,14.321951953125,8.7541978125L8.753461953125,14.3227078125Q8.355711953124999,14.7204078125,8.355711953124999,15.1181078125Q8.355711953124999,15.5159078125,8.753461953125,15.9136078125Q9.548951953125,16.7091078125,10.344451953124999,15.9136078125L15.912951953125,10.345177812500001ZM16.708751953125002,12.7307578125Q17.504251953125,13.5262078125,16.708751953125002,14.3217078125L14.322251953125,16.7082078125Q13.924451953125,17.1060078125,13.526751953125,17.1060078125Q13.128991953125,17.1060078125,12.731241953125,16.7082078125Q11.935751953125,15.9127078125,12.731241953125,15.1172078125L15.117751953125,12.7307578125Q15.913251953125,11.9352578125,16.708751953125002,12.7307578125Z" fill-rule="evenodd" fill="#000000" fill-opacity="1"/></g></g></svg>