<svg xmlns="http://www.w3.org/2000/svg" xmlns:xlink="http://www.w3.org/1999/xlink" fill="none" version="1.1" width="24" height="24" viewBox="0 0 24 24"><defs><clipPath id="master_svg0_234_5720"><rect x="0" y="0" width="24" height="24" rx="0"/></clipPath></defs><g clip-path="url(#master_svg0_234_5720)"><g><path d="M17.906051953125,17.0861921875Q17.733251953125,17.1053921875,17.541251953125,17.1533921875Q17.349251953125,17.201392187499998,17.195651953125,17.2589921875Q17.003651953125,17.335792187499997,16.830851953125,17.4317921875Q16.792451953125,17.2205921875,16.850051953125,17.009392187499998Q16.888451953125,16.817392187499998,17.003651953125,16.6061921875Q17.118851953125002,16.3949921875,17.387651953125,16.1837921875Q17.867651953124998,15.8573921875,18.530051953125,15.7805921875Q19.192451953125,15.7037921875,19.768451953125,15.9341921875Q20.344451953125,16.1645921875,20.670851953125,16.7309921875Q20.997251953125,17.2973921875,20.786051953125,18.2765921875Q20.613251953125,19.0637921875,20.075651953125,19.7069921875Q19.538051953125,20.3501921875,18.645251953124998,20.6957921875Q17.752451953125,21.0413921875,16.542851953125002,21.0221921875Q15.333251953125,21.0029921875,13.835651953125,20.4845921875Q12.798851953125,20.1197921875,12.203651953125,19.5725921875Q11.608451953125,19.0253921875,11.310851953124999,18.449392187500003Q11.013251953125,17.873392187500002,10.955651953124999,17.3645921875Q10.898051953125,16.8557921875,10.936451953125001,16.5677921875Q10.974851953125,16.2797921875,11.176451953125,15.8573921875Q11.378051953125,15.4349921875,11.589251953125,15.0509921875Q11.838851953125,14.5901921875,12.146051953125,14.1101921875Q12.299651953125,13.8605921875,12.414851953125,13.6301921875Q12.510851953125,13.4189921875,12.568451953125,13.2077921875Q12.626051953125,12.9965921875,12.568451953125,12.8045921875Q12.376451953125,12.3053921875,12.088451953125,12.0365921875Q11.800451953125,11.7677921875,11.531651953125,11.6333921875Q11.205251953125,11.4989921875,10.859651953124999,11.4797921875Q10.379651953125,11.4605921875,9.976451953125,11.3645921875Q9.630851953125,11.2685921875,9.294851953125,11.1149921875Q8.958851953125,10.9613921875,8.805251953125001,10.6349921875Q8.632451953124999,10.3085921875,8.661251953125,9.9629921875Q8.690051953125,9.6173921875,8.795651953124999,9.2813921875Q8.901251953125,8.945392187500001,9.016451953125,8.6381921875Q9.131651953125,8.3309921875,9.131651953125,8.1005921875Q9.131651953125,7.4861921875,8.478851953125,7.2365921875Q7.634051953125,7.0253921875,7.211651953125,7.0637921875Q6.7892519531249995,7.1021921875,6.616451953125,7.2269921875Q6.443651953125,7.3517921875,6.443651953125,7.4573921875Q6.443651953125,7.5629921875,6.443651953125,7.4861921875Q6.443651953125,7.7549921875,6.510851953125,8.1773921875Q6.578051953125,8.5997921875,6.443651953125,8.9837921875Q6.347651953125,9.2141921875,6.184451953125,9.4157921875Q6.021251953125001,9.6173921875,5.906051953125,9.7901921875Q5.752451953125,10.0397921875,5.646851953125,10.2221921875Q5.541251953125,10.4045921875,5.560451953125,10.462192187500001Q5.598851953125,10.5389921875,5.742851953125,10.5677921875Q5.886851953124999,10.5965921875,5.963651953125,10.6349921875Q6.059651953125,10.6925921875,6.088451953125,10.8173921875Q6.117251953125,10.9421921875,6.232451953125,11.0381921875Q6.424451953125001,11.2301921875,6.462851953125,11.3645921875Q6.482051953125,11.4413921875,6.462851953125,11.4989921875Q6.462851953125,11.6525921875,6.482051953125,11.8637921875Q6.501251953125,12.0365921875,6.530051953125,12.2573921875Q6.558851953125,12.4781921875,6.616451953125,12.6893921875Q6.7316519531250005,13.1885921875,6.885251953125,13.3901921875Q7.0388519531250004,13.5917921875,7.259651953125,13.6397921875Q7.480451953125,13.6877921875,7.787651953125,13.6493921875Q8.094851953125,13.6109921875,8.536451953124999,13.6109921875Q8.862851953125,13.6301921875,9.208451953125,13.6301921875Q9.554051953125,13.6301921875,9.822851953125,13.7837921875Q10.091651953125,13.9373921875,10.245251953124999,14.2061921875Q10.398851953125,14.4749921875,10.494851953125,14.7437921875Q10.571651953125,15.0701921875,10.610051953125,15.4157921875Q10.667651953124999,15.8573921875,10.667651953124999,16.298992187499998Q10.667651953124999,16.6829921875,10.629251953125,17.1341921875Q10.590851953125,17.5853921875,10.437251953125,18.0269921875Q10.110851953125,18.9293921875,9.477251953125,19.3709921875Q8.843651953125,19.8125921875,8.114051953125,19.9469921875Q7.346051953125,20.1005921875,6.654851953125,19.9853921875Q5.963651953125,19.8701921875,5.406851953125,19.6013921875Q4.850051953125,19.3325921875,4.494851953125,18.9485921875Q4.139651953125,18.5645921875,4.062851953125,18.1805921875Q4.005251953125,17.873392187500002,4.053251953125,17.5757921875Q4.101251953125,17.2781921875,4.197251953125,16.9997921875Q4.293251953125,16.7213921875,4.427651953125,16.4717921875Q4.562051953125,16.2221921875,4.658051953125,15.9917921875Q4.830851953125,15.6269921875,4.869251953125,15.3485921875Q4.907651953125,15.0701921875,4.869251953125,14.8781921875Q4.830851953125,14.6669921875,4.7156519531250005,14.4941921875Q4.542851953125,14.3021921875,4.350851953125,14.0909921875Q4.197251953125,13.8989921875,4.024451953125,13.6781921875Q3.8516519531249997,13.4573921875,3.736451953125,13.1885921875Q3.352451953125,12.4013921875,3.333251953125,11.7293921875Q3.333251953125,11.4413921875,3.342851973125,11.0285921875Q3.352451953125,10.6157921875,3.486851953125,10.2509921875Q3.602051953125,9.9437921875,4.053251953125,9.4349921875Q4.504451953125,8.9261921875,5.061251953125,8.1197921875Q5.1764519531249995,7.8893921875,5.262851953125,7.6397921875Q5.349251953125,7.3901921875,5.397251953125,7.1789921875Q5.445251953125,6.9677921875,5.464451953125,6.8141921875Q5.483651953124999,6.6605921875,5.483651953124999,6.6029921875Q5.483651953124999,6.4109921875,5.464451953125,6.1805921875Q5.445251953125,5.9501921875,5.426051953125,5.7005921875Q5.426051953125,5.5853921875,5.406851953125,5.3165921874999995Q5.387651953124999,5.0477921875,5.454851953125,4.721392187499999Q5.5220519531250005,4.3949921875,5.694851953125,4.0589921874999995Q5.867651953125,3.7229921875,6.232451953125,3.4541921875Q6.520451953125,3.2429921875,6.914051953125,3.1565921875Q7.307651953125,3.0701921875,7.653251953125,3.0509921875Q8.056451953125,3.0317921875,8.498051953125,3.0701921875Q8.862851953125,2.9357921875,9.266051953125,2.8589921875Q9.611651953125001,2.7821921875,10.072451953125,2.7245921875Q10.533251953125,2.6669921875,11.032451953125001,2.6669921875Q12.702851953125,2.7053921875,13.835651953125,3.1757921875Q14.968451953125,3.6461921875,15.698051953125,4.3277921875Q16.427651953125,5.0093921875,16.811651953125,5.806192187500001Q17.195651953125,6.6029921875,17.368451953125,7.2845921875Q17.541251953125,7.9661921875,17.570051953125002,8.4365921875Q17.598851953125,8.9069921875,17.598851953125,8.9261921875Q17.618051953125,9.2525921875,17.829251953125002,9.5213921875Q18.040451953125,9.7901921875,18.318851953124998,10.0685921875Q18.597251953125,10.3469921875,18.894851953125,10.6349921875Q19.192451953125,10.9229921875,19.403651953125,11.2685921875Q19.806851953125,11.9981921875,19.845251953125,12.5741921875Q19.883651953125,13.1501921875,19.691651953125,13.5917921875Q19.499651953125,14.0333921875,19.154051953125,14.3501921875Q18.808451953125,14.6669921875,18.453251953124997,14.8781921875Q18.098051953125,15.0893921875,17.800451953125,15.2045921875Q17.502851953125003,15.3197921875,17.426051953125,15.3581921875Q16.792451953125,15.6461921875,16.456451953125,15.9917921875Q16.120451953125,16.3373921875,16.005251953125,16.6829921875Q15.890051953125,17.0285921875,15.957251953125,17.354992187500002Q16.024451953125002,17.681392187500002,16.235651953125,17.911792187499998Q16.370051953125,18.0845921875,16.581251953124998,18.1997921875Q16.792451953125,18.3149921875,17.013251953125,18.3725921875Q17.234051953125,18.430192187499998,17.435651953125,18.4397921875Q17.637251953125002,18.449392187500003,17.771651953125,18.4109921875Q18.078851953125,18.3533921875,18.280451953125002,18.132592187500002Q18.482051953125,17.911792187499998,18.520451953125,17.6621921875Q18.558851953125,17.4125921875,18.414851953125,17.2397921875Q18.270851953125,17.0669921875,17.906051953125,17.0861921875Z" fill="#000000" fill-opacity="1"/></g></g></svg>